<svg xmlns="http://www.w3.org/2000/svg" viewBox="0 0 100 100">
  <path d="M5,50 C22,20 78,20 95,50 C78,76 22,76 5,50Z" fill="#cddec8"/>
  <circle cx="50" cy="50" r="24" fill="#1e2147"/>
  <circle cx="50" cy="50" r="19" fill="#ffffff"/>
  <path d="M50,68 C42,58 35,52 35,44 A15,15 0 0 1 65,44 C65,52 58,58 50,68Z" fill="#e53935"/>
  <circle cx="50" cy="43" r="6" fill="#ffffff"/>
  <path d="M5,50 C22,20 78,20 95,50 C78,76 22,76 5,50Z" fill="none" stroke="#1e2147" stroke-width="5" stroke-linecap="round" stroke-linejoin="round"/>
  <line x1="19" y1="37" x2="14" y2="27" stroke="#1e2147" stroke-width="3.5" stroke-linecap="round"/>
  <line x1="30" y1="27" x2="27" y2="16" stroke="#1e2147" stroke-width="3.5" stroke-linecap="round"/>
  <line x1="40" y1="22" x2="39" y2="11" stroke="#1e2147" stroke-width="3.5" stroke-linecap="round"/>
  <line x1="50" y1="20" x2="50" y2="9"  stroke="#1e2147" stroke-width="3.5" stroke-linecap="round"/>
  <line x1="60" y1="22" x2="61" y2="11" stroke="#1e2147" stroke-width="3.5" stroke-linecap="round"/>
  <line x1="70" y1="27" x2="73" y2="16" stroke="#1e2147" stroke-width="3.5" stroke-linecap="round"/>
  <line x1="81" y1="37" x2="86" y2="27" stroke="#1e2147" stroke-width="3.5" stroke-linecap="round"/>
</svg>
