<svg width="216" height="108" viewBox="0 0 216 108" fill="none" xmlns="http://www.w3.org/2000/svg">
<path d="M107.58 17.32C59.5405 17.32 20.6005 61 20.6005 61C20.6005 61 59.5405 104.68 107.58 104.68C155.62 104.68 194.56 61 194.56 61C194.56 61 155.62 17.32 107.58 17.32Z" fill="#CCE3C7" stroke="#ffffff" stroke-width="5" stroke-miterlimit="10" stroke-linecap="round"/>
<path d="M107.58 101.28C129.827 101.28 147.86 83.246 147.86 61C147.86 38.754 129.827 20.72 107.58 20.72C85.3344 20.72 67.3005 38.754 67.3005 61C67.3005 83.246 85.3344 101.28 107.58 101.28Z" fill="white" stroke="#ffffff" stroke-width="4" stroke-miterlimit="10"/>
<path d="M107.64 27.28C107.64 27.28 107.6 27.28 107.59 27.28C107.57 27.28 107.55 27.28 107.54 27.28C95.0405 27.28 84.9005 37.42 84.9005 49.92C84.9005 50.55 85.3505 53.12 85.5505 54.17C87.2905 63.62 107.54 97.58 107.54 97.58C107.54 97.58 107.56 97.47 107.59 97.27C107.62 97.47 107.64 97.58 107.64 97.58C107.64 97.58 127.89 63.62 129.63 54.17C129.82 53.12 130.28 50.55 130.28 49.92C130.28 37.42 120.14 27.28 107.64 27.28Z" fill="#E52421"/>
<path d="M107.58 59.04C113.043 59.04 117.47 54.6121 117.47 49.15C117.47 43.6879 113.043 39.26 107.58 39.26C102.118 39.26 97.6905 43.6879 97.6905 49.15C97.6905 54.6121 102.118 59.04 107.58 59.04Z" fill="white"/>
<path d="M20.6105 61L2.50049 51.18" stroke="#ffffff" stroke-width="5" stroke-miterlimit="10" stroke-linecap="round"/>
<path d="M41.0905 42.77L27.2505 27.2" stroke="#ffffff" stroke-width="5" stroke-miterlimit="10" stroke-linecap="round"/>
<path d="M61.2405 29.91L51.3605 13.73" stroke="#ffffff" stroke-width="5" stroke-miterlimit="10" stroke-linecap="round"/>
<path d="M82.5105 20L76.8905 5.56" stroke="#ffffff" stroke-width="5" stroke-miterlimit="10" stroke-linecap="round"/>
<path d="M194.55 61L212.66 51.18" stroke="#ffffff" stroke-width="5" stroke-miterlimit="10" stroke-linecap="round"/>
<path d="M174.07 42.77L187.91 27.2" stroke="#ffffff" stroke-width="5" stroke-miterlimit="10" stroke-linecap="round"/>
<path d="M153.92 29.91L163.8 13.73" stroke="#ffffff" stroke-width="5" stroke-miterlimit="10" stroke-linecap="round"/>
<path d="M132.65 20L138.27 5.56" stroke="#ffffff" stroke-width="5" stroke-miterlimit="10" stroke-linecap="round"/>
<path d="M107.58 17.32V2.5" stroke="#ffffff" stroke-width="5" stroke-miterlimit="10" stroke-linecap="round"/>
</svg>
